<?xml version="1.0" encoding="UTF-8"?>
<svg version="1.1" xmlns="http://www.w3.org/2000/svg" width="896" height="193">
<path d="M0 0 C55.11 0 110.22 0 167 0 C165.32348841 3.35302318 164.32891902 4.91972702 161.79830933 7.44219971 C161.13925598 8.10400238 160.48020264 8.76580505 159.80117798 9.44766235 C159.07901093 10.16263885 158.35684387 10.87761536 157.61279297 11.61425781 C156.85172241 12.37562042 156.09065186 13.13698303 155.30651855 13.92141724 C152.78978644 16.43675604 150.26604416 18.94493661 147.7421875 21.453125 C145.99583128 23.19575111 144.2499161 24.93881931 142.50442505 26.68231201 C137.90896304 31.27013748 133.30752651 35.85192517 128.70483398 40.43249512 C123.18368079 45.92959359 117.66995243 51.43413738 112.15498352 56.93743896 C103.77567326 65.29735422 95.38696851 73.64773619 87 82 C125.115 82.495 125.115 82.495 164 83 C164 95.54 164 108.08 164 121 C108.56 121 53.12 121 -4 121 C-2.36901913 117.73803827 -1.4706324 116.22101561 0.9765625 113.79296875 C1.56566406 113.20580078 2.15476563 112.61863281 2.76171875 112.01367188 C3.37660156 111.41103516 3.99148437 110.80839844 4.625 110.1875 C5.21667969 109.59646484 5.80835938 109.00542969 6.41796875 108.39648438 C9.41868348 105.42493426 12.47377953 102.564504 15.68505859 99.8215332 C20.26600484 95.82863732 24.54034723 91.56850606 28.8125 87.25 C29.62565674 86.43305664 30.43881348 85.61611328 31.27661133 84.77441406 C33.85353297 82.18537329 36.42717625 79.59311263 39 77 C42.39287153 73.58037281 45.78914657 70.16417851 49.1875 66.75 C50.33472534 65.59032715 50.33472534 65.59032715 51.50512695 64.40722656 C54.86650222 61.03073156 58.24320106 57.73961215 61.86328125 54.640625 C67.1327633 50.00308272 72.03642067 44.96357933 77 40 C51.59 39.67 26.18 39.34 0 39 C0 26.13 0 13.26 0 0 Z " fill="#005CA8" transform="translate(188,3)"/>
<path d="M0 0 C4.30322187 1.43440729 7.76869061 2.77933338 11.71875 4.8359375 C13.34683594 5.68091797 13.34683594 5.68091797 15.0078125 6.54296875 C16.16023438 7.14753906 17.31265625 7.75210937 18.5 8.375 C19.71607101 9.00925806 20.93221789 9.64337069 22.1484375 10.27734375 C30.36927711 14.57289556 38.52362437 18.98415671 46.6484375 23.45849609 C53.87295888 27.42282132 61.17452852 31.22599128 68.5 35 C76.80519238 39.27903554 85.06106131 43.62753689 93.25 48.125 C104.42103365 54.23009978 115.71338016 60.11132878 127 66 C127.33 45.21 127.66 24.42 128 3 C140.54 3 153.08 3 166 3 C166 43.92 166 84.84 166 127 C162.02244836 126.00561209 158.7647964 124.47953342 155.1640625 122.60546875 C154.1640773 122.09080803 154.1640773 122.09080803 153.14389038 121.56575012 C150.96856116 120.44418011 148.79667999 119.31611767 146.625 118.1875 C145.11071606 117.40422152 143.59639286 116.62101894 142.08203125 115.83789062 C133.14626941 111.20683555 124.27676197 106.47141389 115.46923828 101.6003418 C106.52367544 96.68003268 97.4328927 92.04890011 88.34585571 87.39730835 C78.55130089 82.3809327 68.81933613 77.27587518 59.19921875 71.9296875 C52.87175203 68.42252256 46.49267889 65.24633945 40 62 C39.67 82.46 39.34 102.92 39 124 C26.13 124 13.26 124 0 124 C0 83.08 0 42.16 0 0 Z " fill="#005CA8" transform="translate(439,0)"/>
<path d="M0 0 C12.87 0 25.74 0 39 0 C39.02578125 4.10824219 39.0515625 8.21648438 39.078125 12.44921875 C39.10988364 15.76087537 39.14553844 19.07244003 39.18379211 22.38402557 C39.22289118 25.85995789 39.255403 29.33564359 39.27099609 32.81176758 C39.28928178 36.81631564 39.33934176 40.8199562 39.390625 44.82421875 C39.39185364 46.04767502 39.39308228 47.27113129 39.39434814 48.53166199 C39.56701436 58.86645805 40.85776433 69.07411238 48 77 C50.0661298 78.37878371 50.0661298 78.37878371 52.3125 79.25 C53.03050781 79.56453125 53.74851563 79.8790625 54.48828125 80.203125 C60.48888989 82.10689508 66.6315438 82.15914108 72.86328125 82.16796875 C73.69530563 82.17129715 74.52733002 82.17462555 75.38456726 82.17805481 C77.13682507 82.18309307 78.88909238 82.1854641 80.64135742 82.18530273 C83.29427235 82.18748501 85.94676803 82.20566227 88.59960938 82.22460938 C105.9456785 82.62115678 105.9456785 82.62115678 121 75 C128.33342264 66.28572933 128.31346262 56.19237227 128.4140625 45.3125 C128.43342865 44.01425293 128.4527948 42.71600586 128.4727478 41.37841797 C128.52374737 37.95252406 128.56354352 34.5265912 128.60089111 31.1005249 C128.6411344 27.59426529 128.69203058 24.08816075 128.7421875 20.58203125 C128.83955875 13.72141534 128.91933332 6.86091383 129 0 C141.87 0 154.74 0 168 0 C168.04625591 7.52172465 168.08597711 15.04294299 168.10986328 22.56469727 C168.11983554 25.1161467 168.13341817 27.66758496 168.15087891 30.21899414 C168.51229847 84.44255914 168.51229847 84.44255914 150.625 104.1875 C135.93485981 118.08118681 116.2212664 121.12000087 96.78125 121.203125 C95.72450073 121.20882507 94.66775146 121.21452515 93.57897949 121.22039795 C91.35018906 121.22979988 89.12138503 121.23636268 86.89257812 121.24023438 C83.53750356 121.24989205 80.18305503 121.28094275 76.828125 121.3125 C55.75812161 121.41687365 34.18042398 120.10971057 17.87890625 105.0390625 C-2.14814465 84.06555362 -0.3130051 52.72425598 -0.125 25.875 C-0.11494395 23.35547233 -0.10582277 20.83594075 -0.09765625 18.31640625 C-0.07758509 12.21075899 -0.03840043 6.10566791 0 0 Z " fill="#005CA8" transform="translate(0,3)"/>
<path d="M0 0 C12.87 0 25.74 0 39 0 C39 39.93 39 79.86 39 121 C26.13 121 13.26 121 0 121 C0 81.07 0 41.14 0 0 Z " fill="#005CA8" transform="translate(373,3)"/>
<path d="M0 0 C2.62462244 -0.26697888 5.01065933 -0.34832984 7.6328125 -0.29296875 C8.76056595 -0.28660149 8.76056595 -0.28660149 9.91110229 -0.28010559 C12.31609685 -0.2632917 14.72025809 -0.22563624 17.125 -0.1875 C18.75389416 -0.17245659 20.38280144 -0.15876758 22.01171875 -0.14648438 C26.00813434 -0.11337954 30.00392582 -0.06158009 34 0 C32.73934799 3.41633337 31.30076708 6.26056874 29.19921875 9.23046875 C28.64105469 10.02388672 28.08289063 10.81730469 27.5078125 11.63476562 C26.90710938 12.47716797 26.30640625 13.31957031 25.6875 14.1875 C25.06230469 15.07244141 24.43710937 15.95738281 23.79296875 16.86914062 C19.21517633 23.33434947 14.57997629 29.75786764 9.92578125 36.16821289 C3.50226668 45.03104925 -2.74787001 54.01583493 -9 63 C-3.0917361 72.4749391 3.16339113 81.70293752 9.4375 90.9375 C13.29552468 96.62238909 17.15102746 102.30897752 21 108 C21.42323547 108.62545715 21.84647095 109.25091431 22.28253174 109.89532471 C23.43193037 111.59637037 24.57742588 113.30005151 25.72265625 115.00390625 C26.36082275 115.95209229 26.99898926 116.90027832 27.65649414 117.87719727 C29 120 29 120 29 121 C1.05902703 125.59400483 1.05902703 125.59400483 -7.76550293 119.85101318 C-14.56262831 113.86489354 -18.6702126 105.1630485 -22.71891785 97.20979309 C-25.16417035 92.41463808 -27.88434427 87.9966662 -31.01171875 83.6171875 C-31.41914307 83.04534225 -31.82656738 82.47349701 -32.24633789 81.88432312 C-33.43056338 80.23208707 -34.62060112 78.58420651 -35.8125 76.9375 C-37.25228089 74.93763092 -38.67705807 72.92681793 -40.08203125 70.90234375 C-40.67218018 70.07210693 -41.2623291 69.24187012 -41.87036133 68.38647461 C-43.28973975 65.38789583 -43.06058522 64.10542095 -42 61 C-40.94702148 59.05322266 -40.94702148 59.05322266 -39.62109375 57.1640625 C-38.86965088 56.07992065 -38.86965088 56.07992065 -38.10302734 54.97387695 C-37.55340332 54.19874756 -37.0037793 53.42361816 -36.4375 52.625 C-35.57825928 51.39172974 -35.57825928 51.39172974 -34.70166016 50.13354492 C-33.46101228 48.35433024 -32.21672655 46.57764793 -30.96923828 44.80322266 C-28.27225489 40.96405042 -25.59729703 37.10971581 -22.9206543 33.25634766 C-20.89217424 30.337215 -18.86038267 27.42040984 -16.828125 24.50390625 C-13.411518 19.59658686 -10.01139038 14.6782129 -6.625 9.75 C-6.17882324 9.10071533 -5.73264648 8.45143066 -5.27294922 7.7824707 C-3.49963265 5.1982846 -1.73852429 2.60778643 0 0 Z " fill="#FA9148" transform="translate(862,3)"/>
<path d="M0 0 C14.98621415 -0.22603117 29.97155134 -0.41011171 44.9590683 -0.51812172 C51.91864691 -0.56961385 58.87708877 -0.63976671 65.8359375 -0.75439453 C72.55340666 -0.86499322 79.26945205 -0.92286242 85.98786926 -0.94877243 C88.54924596 -0.96723276 91.11055891 -1.00328355 93.6714325 -1.05730057 C97.26348711 -1.13004667 100.85068522 -1.13988603 104.44335938 -1.13525391 C106.02724457 -1.18918304 106.02724457 -1.18918304 107.64312744 -1.24420166 C112.22270243 -1.18042123 114.9153993 -0.98558143 118.38398743 2.16633987 C120.42525207 4.69776903 122.22812583 7.27549957 124 10 C125.01877073 11.29329412 126.03932203 12.58518981 127.0625 13.875 C129 17 129 17 128.7660923 18.90242863 C127.19169101 23.21316127 125.35597237 26.80589921 122 30 C118.04040761 31.29082791 114.25367128 31.14124692 110.11962891 31.02172852 C108.33341125 31.02369987 108.33341125 31.02369987 106.5111084 31.02571106 C103.25809518 31.02052706 100.00860115 30.97552048 96.7562871 30.91254544 C93.35317425 30.8561447 89.94998637 30.85098632 86.54647827 30.84031677 C80.10739244 30.81238285 73.66968774 30.73858581 67.23120916 30.64817137 C59.89887802 30.54744796 52.56647963 30.49805958 45.23362851 30.45291245 C30.15485725 30.3589284 15.07787906 30.19393517 0 30 C0 20.1 0 10.2 0 0 Z " fill="#005CA8" transform="translate(638,49)"/>
<path d="M0 0 C0.66 0 1.32 0 2 0 C3.66707936 2.13482106 5.22054603 4.26953452 6.75 6.5 C7.6460069 7.78984717 8.54313811 9.07891407 9.44140625 10.3671875 C10.09520264 11.30643066 10.09520264 11.30643066 10.76220703 12.26464844 C12.75806335 15.06278388 14.92773632 17.71983681 17.13671875 20.3515625 C18 22 18 22 17.70675659 23.85241699 C16.93302179 26.20352306 15.91927744 27.94581041 14.55517578 30.00976562 C14.04485809 30.78815796 13.53454041 31.56655029 13.00875854 32.36853027 C12.45157135 33.20597778 11.89438416 34.04342529 11.3203125 34.90625 C10.44960617 36.22961365 10.44960617 36.22961365 9.56130981 37.57971191 C8.33100105 39.44871794 7.09830542 41.31615463 5.86340332 43.18212891 C4.07500895 45.88657016 2.29506265 48.59633327 0.51855469 51.30859375 C-9.1436142 66.05238819 -9.1436142 66.05238819 -14.00341797 73.27050781 C-19.66672388 81.70853229 -25.19066493 90.05182287 -29.875 99.078125 C-39.13607592 116.39596995 -39.13607592 116.39596995 -45.99884033 118.65917969 C-56.82989781 120.98180953 -68.16271606 119.65399218 -79 118 C-77.61352824 114.18311466 -75.84323689 111.01915474 -73.5859375 107.6484375 C-72.90660156 106.63136719 -72.22726562 105.61429687 -71.52734375 104.56640625 C-70.81707031 103.51324219 -70.10679687 102.46007812 -69.375 101.375 C-68.68792969 100.34503906 -68.00085938 99.31507813 -67.29296875 98.25390625 C-63.94119792 93.25454826 -60.53088401 88.31680588 -56.96875 83.46484375 C-52.83267149 77.82630453 -48.97014286 72.0268395 -45.125 66.1875 C-40.84260236 59.72060724 -36.55584755 53.27780349 -32 47 C-26.75076631 39.76456978 -21.85105928 32.30480897 -16.91577148 24.85302734 C-12.32196349 17.93406687 -7.61351437 11.12572423 -2.72265625 4.4140625 C-1.00457318 2.13873705 -1.00457318 2.13873705 0 0 Z " fill="#FA9148" transform="translate(813,75)"/>
<path d="M0 0 C37.29 0 74.58 0 113 0 C111.30886582 4.22783546 109.42072457 7.63977865 106.90234375 11.359375 C106.31085289 12.2441452 106.31085289 12.2441452 105.70741272 13.14678955 C104.87829952 14.38527181 104.0469966 15.62229066 103.21362305 16.85791016 C101.93405747 18.7551042 100.66079958 20.65640626 99.38867188 22.55859375 C93.18006865 31.81993135 93.18006865 31.81993135 92 33 C89.13908182 33.09522418 86.30236379 33.12553326 83.44116211 33.11352539 C82.54368759 33.11367142 81.64621307 33.11381744 80.72154236 33.1139679 C77.74011866 33.11326842 74.7587566 33.10547441 71.77734375 33.09765625 C69.71611058 33.09579219 67.65487696 33.09436823 65.59364319 33.09336853 C60.1569599 33.08954237 54.72030314 33.07971126 49.28363037 33.06866455 C43.74052286 33.05845253 38.19741108 33.05387136 32.65429688 33.04882812 C21.76951769 33.03808908 10.8847652 33.02049149 0 33 C0 22.11 0 11.22 0 0 Z " fill="#005CA8" transform="translate(638,91)"/>
<path d="M0 0 C10.64900549 -0.29446985 21.29528116 -0.53261334 31.94744682 -0.67355824 C36.8945705 -0.74122906 41.83875052 -0.83288784 46.78417969 -0.98071289 C51.56311728 -1.12265659 56.33923732 -1.19982776 61.120121 -1.23340416 C62.93767792 -1.25730713 64.75509133 -1.30399327 66.57143784 -1.37449074 C80.40559206 -1.88975581 80.40559206 -1.88975581 84.72969818 1.25990486 C88.21620424 4.73933476 90.57956493 8.74077465 93 13 C94.15665412 14.63057109 95.32905282 16.25036705 96.53125 17.84765625 C97.52367064 19.2506014 98.51336303 20.65548141 99.5 22.0625 C100.26570312 23.14047852 100.26570312 23.14047852 101.046875 24.24023438 C103.31688054 27.46304487 105.22520019 30.45040038 107 34 C71.69 34 36.38 34 0 34 C0 22.78 0 11.56 0 0 Z " fill="#005CA8" transform="translate(638,3)"/>
<path d="M0 0 C28.89460354 -3.00529185 28.89460354 -3.00529185 36.83935547 1.67138672 C41.2797306 5.94762917 44.05714013 11.0890966 46.73876953 16.58886719 C48.55754948 20.06588437 50.96279123 22.9044669 53.5 25.875 C55.71875 28.5546875 55.71875 28.5546875 57 31 C55.863001 34.65855097 54.0575728 37.6772178 51.9609375 40.86328125 C51.38085938 41.74951172 50.80078125 42.63574219 50.203125 43.54882812 C49.59984375 44.46083984 48.9965625 45.37285156 48.375 46.3125 C47.76398437 47.24384766 47.15296875 48.17519531 46.5234375 49.13476562 C45.01957 51.42581376 43.51165714 53.71408719 42 56 C37.73040178 51.94507432 34.14933604 47.5377351 30.5625 42.875 C29.95704346 42.09237793 29.35158691 41.30975586 28.7277832 40.50341797 C23.11372284 33.21361601 17.65212507 25.81451757 12.22265625 18.38671875 C10.21346894 15.64053178 8.18543297 12.91200254 6.12109375 10.20703125 C5.69417236 9.64677246 5.26725098 9.08651367 4.82739258 8.50927734 C3.71419335 7.05409427 2.59560905 5.603035 1.4765625 4.15234375 C0 2 0 2 0 0 Z " fill="#FA9148" transform="translate(773,3)"/>
<path d="M0 0 C1.84735439 -0.24570723 3.70442021 -0.41886929 5.5625 -0.5625 C6.59503906 -0.66691406 7.62757813 -0.77132813 8.69140625 -0.87890625 C14.00395536 0.53233761 16.01209102 4.60014359 19 9 C20.08450754 10.51701851 21.16914096 12.03394704 22.25390625 13.55078125 C23.35914375 15.13636942 24.46192652 16.72367094 25.5625 18.3125 C26.7877184 20.07164385 28.01298009 21.83075755 29.23828125 23.58984375 C29.85912598 24.48300293 30.4799707 25.37616211 31.11962891 26.29638672 C33.56498331 29.81233773 36.01697055 33.32360683 38.47241211 36.83251953 C39.64894652 38.51531439 40.82297726 40.19986272 41.99438477 41.88623047 C44.65575358 45.70774162 47.34541834 49.48988287 50.171875 53.19140625 C50.65237305 53.82965332 51.13287109 54.46790039 51.62792969 55.12548828 C52.51416359 56.29588473 53.41500799 57.45542389 54.33300781 58.60107422 C55.5 60.15234375 55.5 60.15234375 57 63 C55.92123944 66.59806562 54.17672731 69.42475362 52.0078125 72.46484375 C51.39502441 73.33359131 50.78223633 74.20233887 50.15087891 75.09741211 C49.48233887 76.03464111 48.81379883 76.97187012 48.125 77.9375 C43.15950461 84.91016483 38.37388503 91.92468358 33.84375 99.1875 C32.53397536 101.25712499 31.22146522 103.32498979 29.90814209 105.3923645 C29.05616606 106.75028616 28.21667595 108.11612605 27.39019775 109.48971558 C20.7701934 120.47591751 20.7701934 120.47591751 16.17480469 121.83642578 C13.62944937 121.8467218 11.45935813 121.63415981 9 121 C10.2614608 117.63782381 11.6953284 114.67432967 13.625 111.6484375 C14.42514526 110.39039307 14.42514526 110.39039307 15.24145508 109.10693359 C15.8217749 108.20539551 16.40209473 107.30385742 17 106.375 C17.60287842 105.43092285 18.20575684 104.4868457 18.8269043 103.51416016 C22.45434206 97.86313849 26.14859939 92.26032287 29.89453125 86.6875 C30.30379852 86.07782379 30.7130658 85.46814758 31.13473511 84.83999634 C33.1546643 81.83309885 35.18181802 78.83147942 37.22070312 75.83740234 C37.95869141 74.74379395 38.69667969 73.65018555 39.45703125 72.5234375 C40.4466687 71.0681665 40.4466687 71.0681665 41.45629883 69.58349609 C43.32864289 66.47442791 43.32864289 66.47442791 44 63 C43.15995911 61.09483012 43.15995911 61.09483012 41.7109375 59.3046875 C41.18822266 58.59828125 40.66550781 57.891875 40.12695312 57.1640625 C39.54880859 56.40867188 38.97066406 55.65328125 38.375 54.875 C37.16372922 53.24764384 35.95280104 51.62003264 34.7421875 49.9921875 C34.11795898 49.16170898 33.49373047 48.33123047 32.85058594 47.47558594 C30.01761941 43.68583915 27.26044779 39.84270247 24.5 36 C23.4275067 34.51401727 22.35458746 33.02834186 21.28125 31.54296875 C20.74628906 30.80224121 20.21132813 30.06151367 19.66015625 29.29833984 C17.93000152 26.90309328 16.19941447 24.50815953 14.46875 22.11328125 C13.88802734 21.30955078 13.30730469 20.50582031 12.70898438 19.67773438 C11.60627308 18.15158194 10.50341901 16.62553265 9.40039062 15.09960938 C8.4060178 13.72327516 7.41310672 12.34588331 6.421875 10.96728516 C5.46122822 9.63814852 4.49223122 8.31501324 3.515625 6.99755859 C0 2.21418539 0 2.21418539 0 0 Z " fill="#FA9148" transform="translate(750,3)"/>
<path d="M0 0 C3.58875 -0.061875 3.58875 -0.061875 7.25 -0.125 C7.99668945 -0.14320801 8.74337891 -0.16141602 9.51269531 -0.18017578 C13.19778057 -0.21090134 15.88201812 -0.04115309 19 2 C19.99 1.34 20.98 0.68 22 0 C28.97233202 -0.55335968 28.97233202 -0.55335968 32.4375 1.3125 C35.83448387 4.98124258 35.11564152 9.50695837 35.0625 14.1875 C35.05798828 14.93708984 35.05347656 15.68667969 35.04882812 16.45898438 C35.03706354 18.30602383 35.01912865 20.15302213 35 22 C33.35 22 31.7 22 30 22 C29.93941406 20.85660156 29.87882812 19.71320313 29.81640625 18.53515625 C29.73201572 17.04425695 29.64736698 15.55337225 29.5625 14.0625 C29.52318359 13.30775391 29.48386719 12.55300781 29.44335938 11.77539062 C29.55961976 8.08055813 29.55961976 8.08055813 28 5 C25.54190002 4.7499227 25.54190002 4.7499227 23 5 C20.15385976 7.84614024 20.54420924 10.80369142 20.375 14.625 C20.33632813 15.33140625 20.29765625 16.0378125 20.2578125 16.765625 C20.16352276 18.50998524 20.08067109 20.25495691 20 22 C18.35 22 16.7 22 15 22 C14.93941406 20.85660156 14.87882812 19.71320313 14.81640625 18.53515625 C14.73201572 17.04425695 14.64736698 15.55337225 14.5625 14.0625 C14.52318359 13.30775391 14.48386719 12.55300781 14.44335938 11.77539062 C14.55961976 8.08055813 14.55961976 8.08055813 13 5 C10.54190002 4.7499227 10.54190002 4.7499227 8 5 C5.15385976 7.84614024 5.54420924 10.80369142 5.375 14.625 C5.33632813 15.33140625 5.29765625 16.0378125 5.2578125 16.765625 C5.16352276 18.50998524 5.08067109 20.25495691 5 22 C3.35 22 1.7 22 0 22 C0 14.74 0 7.48 0 0 Z " fill="#FA9148" transform="translate(294,153)"/>
<path d="M0 0 C1.9375 1.25 1.9375 1.25 3 3 C3 4.32 3 5.64 3 7 C-0.34373475 6.44271087 -3.03312999 5.64826111 -6 4 C-5.51286902 8.41510774 -4.14946803 10.30446645 -0.9375 13.3125 C-0.20402344 14.00988281 0.52945313 14.70726562 1.28515625 15.42578125 C1.85105469 15.94527344 2.41695312 16.46476562 3 17 C3.43957031 16.34515625 3.87914062 15.6903125 4.33203125 15.015625 C4.88246094 14.35046875 5.43289062 13.6853125 6 13 C8.6875 12.75 8.6875 12.75 11 13 C10.690625 13.7425 10.38125 14.485 10.0625 15.25 C9.711875 16.1575 9.36125 17.065 9 18 C8.566875 19.0209375 8.566875 19.0209375 8.125 20.0625 C8.08375 20.701875 8.0425 21.34125 8 22 C9.89586384 24.14589423 9.89586384 24.14589423 12 26 C12 26.66 12 27.32 12 28 C6.375 28.25 6.375 28.25 3 26 C1.29358185 26.75476187 -0.41131241 27.51389319 -2.09765625 28.3125 C-5.32815603 29.47999068 -7.76496062 28.91557718 -11 28 C-13.4375 26.4375 -13.4375 26.4375 -15 24 C-15.55249847 21.22611591 -15.60117509 18.76887373 -15 16 C-14.34 15.360625 -13.68 14.72125 -13 14.0625 C-10.78013232 12.22237756 -10.78013232 12.22237756 -10.875 9.8671875 C-10.91625 9.06539062 -10.9575 8.26359375 -11 7.4375 C-11.17306942 3.22845164 -11.17306942 3.22845164 -9.4375 0.9375 C-6.09852573 -0.34672087 -3.54510445 -0.38673867 0 0 Z M-9.75 16.6875 C-11.30736188 18.97374618 -11.30736188 18.97374618 -10.4375 21.6875 C-9.22353396 24.08035037 -9.22353396 24.08035037 -7.1875 24.9375 C-4.39601183 25.0172568 -2.50301771 24.18198059 0 23 C-1.44077046 19.63820226 -3.24750021 17.40843732 -6 15 C-8.16523212 14.76862148 -8.16523212 14.76862148 -9.75 16.6875 Z " fill="#FA9148" transform="translate(139,147)"/>
<path d="M0 0 C2.66666667 0 5.33333333 0 8 0 C9.27875 -0.0825 10.5575 -0.165 11.875 -0.25 C15.19613512 -0.26223254 15.97679593 -0.01481111 18.9375 1.875 C22.00349945 5.03390852 22.22304686 6.99352418 22.375 11.3125 C22.31368111 15.20624922 22.1425995 16.75758085 20.125 20.1875 C15.7855895 22.70435809 11.91604173 22.63726467 7 22 C6.67 21.67 6.34 21.34 6 21 C5.67 24.63 5.34 28.26 5 32 C3.35 32 1.7 32 0 32 C0 21.44 0 10.88 0 0 Z M5 8 C4.50785046 11.37473969 4.66513627 13.29306546 6.125 16.375 C7.96762752 18.25586477 7.96762752 18.25586477 10.9375 18.5 C14.04084734 18.2013472 14.04084734 18.2013472 16.4375 16.4375 C18.32894058 13.98253455 18.32894058 13.98253455 17.9375 10.4375 C16.94706012 6.45571474 16.94706012 6.45571474 14 4 C9.56732047 3.20439085 7.576207 4.37422719 5 8 Z " fill="#FA9148" transform="translate(428,153)"/>
<path d="M0 0 C2.66666667 0 5.33333333 0 8 0 C9.27875 -0.0825 10.5575 -0.165 11.875 -0.25 C15.19613512 -0.26223254 15.97679593 -0.01481111 18.9375 1.875 C21.84485752 4.87045927 22.21407848 6.6650691 22.375 10.75 C22.31470562 14.21692667 22.09514681 16.72527687 20.125 19.625 C16.21847814 22.59395662 13.88096405 22.54152635 9.109375 22.30859375 C7 22 7 22 6 21 C5.67 24.63 5.34 28.26 5 32 C3.35 32 1.7 32 0 32 C0 21.44 0 10.88 0 0 Z M5 8 C4.50785046 11.37473969 4.66513627 13.29306546 6.125 16.375 C7.97263985 18.2712539 7.97263985 18.2712539 11 18.4375 C13.92250748 18.21516333 13.92250748 18.21516333 15.8125 16.875 C17.53112958 14.16137435 17.93572343 12.21382832 18 9 C16.52383326 6.0296131 16.52383326 6.0296131 14 4 C9.61052376 3.01236785 7.54235535 4.42187026 5 8 Z " fill="#FA9148" transform="translate(243,153)"/>
<path d="M0 0 C1.65 0 3.3 0 5 0 C5 9.57 5 19.14 5 29 C2.66666667 29 0.33333333 29 -2 29 C-2.65613281 29.04640625 -3.31226563 29.0928125 -3.98828125 29.140625 C-8.1638786 29.3371237 -10.36673271 29.39579206 -14 27.125 C-17.49687441 23.40957094 -17.32862375 20.41902765 -17.29296875 15.484375 C-16.88537873 12.02801166 -15.53723498 10.31336131 -13 8 C-10.75487738 6.87743869 -9.48543351 6.86586238 -7 6.875 C-5.948125 6.87113281 -5.948125 6.87113281 -4.875 6.8671875 C-3 7 -3 7 -1 8 C-0.67 5.36 -0.34 2.72 0 0 Z M-10.75 12.1875 C-12.38379608 14.55650431 -12.86266868 16.1160423 -13 19 C-11.8584081 21.2831838 -10.80987317 23.19012683 -9 25 C-6.00105039 25.26077823 -3.81996705 25.43731576 -1.125 24 C0.68498652 20.78224619 0.67345584 17.59176448 0 14 C-2.10193164 11.50882177 -3.36340489 11.09316026 -6.5625 10.625 C-9.00826186 10.82280306 -9.00826186 10.82280306 -10.75 12.1875 Z " fill="#FA9148" transform="translate(613,146)"/>
<path d="M0 0 C3.29167697 1.35960571 4.5912564 2.26036872 6.3125 5.375 C7 8 7 8 7 13 C2.05 13 -2.9 13 -8 13 C-7.67 14.32 -7.34 15.64 -7 17 C-4.08347826 17.16681109 -4.08347826 17.16681109 -1 17 C-0.34 16.34 0.32 15.68 1 15 C3.625 14.875 3.625 14.875 6 15 C5.63603417 17.63875227 5.24685741 18.77200361 3.26171875 20.60546875 C-0.63332666 23.00707706 -4.5807673 22.74368965 -9 22 C-12.07298839 19.99315044 -13.51472543 18.60464123 -14.5859375 15.0625 C-15.29326307 10.91285667 -15.24968305 7.68129953 -13 4 C-9.06592776 -0.28119626 -5.53668743 -0.91904528 0 0 Z M-2 5 C-2.66 6.32 -3.32 7.64 -4 9 C-2.02 9 -0.04 9 2 9 C1.34 7.68 0.68 6.36 0 5 C-0.66 5 -1.32 5 -2 5 Z " fill="#FA9148" transform="translate(717,153)"/>
<path d="M0 0 C0.99 0 1.98 0 3 0 C4.65 0 6.3 0 8 0 C8 7.26 8 14.52 8 22 C5.66666667 22 3.33333333 22 1 22 C0.27167969 22.05800781 -0.45664062 22.11601562 -1.20703125 22.17578125 C-5.59789481 22.40618638 -8.25552178 22.43179737 -12.125 20.1875 C-14.87564051 15.51141114 -14.88283795 11.2970277 -14 6 C-10.24012811 -0.26645315 -6.83198688 -0.12175818 0 0 Z M-8.375 6.0625 C-10.48816666 9.88245512 -10.17341001 11.85395129 -9 16 C-5.52957297 18.31361802 -4.08165827 18.51020728 0 18 C2.56002346 15.781313 2.94923191 14.34812407 3.4375 11 C3.22259472 7.93140655 3.22259472 7.93140655 1.3125 5.625 C-0.88986616 3.85785358 -0.88986616 3.85785358 -3.5 3.4375 C-6.18901068 3.83504853 -6.18901068 3.83504853 -8.375 6.0625 Z " fill="#FA9148" transform="translate(282,153)"/>
<path d="M0 0 C0.99 0 1.98 0 3 0 C4.65 0 6.3 0 8 0 C8 7.26 8 14.52 8 22 C5.66666667 22 3.33333333 22 1 22 C0.27167969 22.06960937 -0.45664063 22.13921875 -1.20703125 22.2109375 C-5.95911592 22.51016922 -8.22947622 22.58559807 -12.125 19.625 C-14.90838206 15.45487955 -14.88939767 10.80755499 -14 6 C-10.18129385 -0.23722005 -6.85558751 -0.12217879 0 0 Z M-8.375 6.125 C-10.26733708 8.90320867 -10.26733708 8.90320867 -9.9375 12.125 C-8.79675187 15.72206885 -8.79675187 15.72206885 -6 18 C-3 18.58333333 -3 18.58333333 0 18 C2.56002346 15.781313 2.94923191 14.34812407 3.4375 11 C3.22259472 7.93140655 3.22259472 7.93140655 1.3125 5.625 C-0.88986616 3.85785358 -0.88986616 3.85785358 -3.5 3.4375 C-6.1999129 3.83181646 -6.1999129 3.83181646 -8.375 6.125 Z " fill="#FA9148" transform="translate(70,153)"/>
<path d="M0 0 C1.64453125 1.1640625 1.64453125 1.1640625 4.14453125 4.1640625 C4.14453125 6.8040625 4.14453125 9.4440625 4.14453125 12.1640625 C-1.13546875 12.1640625 -6.41546875 12.1640625 -11.85546875 12.1640625 C-11.52546875 13.4840625 -11.19546875 14.8040625 -10.85546875 16.1640625 C-6.84537535 16.34270881 -6.84537535 16.34270881 -2.85546875 16.1640625 C-2.19546875 15.5040625 -1.53546875 14.8440625 -0.85546875 14.1640625 C1.76953125 14.0390625 1.76953125 14.0390625 4.14453125 14.1640625 C2.89476369 17.81722921 2.47354372 18.94472086 -0.85546875 21.1640625 C-4.24654246 21.71008284 -7.46421051 21.71034174 -10.85546875 21.1640625 C-13.67971163 18.97383332 -15.27055478 17.33389043 -16.85546875 14.1640625 C-17.25857388 9.32680095 -17.33090157 7.06574543 -15.04296875 2.7265625 C-11.30409684 -1.65325888 -5.21934267 -2.35145122 0 0 Z M-10.79296875 4.4765625 C-12.03307317 6.11378478 -12.03307317 6.11378478 -11.85546875 8.1640625 C-7.89546875 8.1640625 -3.93546875 8.1640625 0.14453125 8.1640625 C-0.51546875 6.8440625 -1.17546875 5.5240625 -1.85546875 4.1640625 C-6.51287427 2.78251554 -6.51287427 2.78251554 -10.79296875 4.4765625 Z " fill="#FA9148" transform="translate(178.85546875,153.8359375)"/>
<path d="M0 0 C1.625 1.1875 1.625 1.1875 3.625 4.1875 C3.625 6.8275 3.625 9.4675 3.625 12.1875 C-1.655 12.1875 -6.935 12.1875 -12.375 12.1875 C-11.385 13.5075 -10.395 14.8275 -9.375 16.1875 C-6.33269177 16.68760524 -6.33269177 16.68760524 -3.375 16.1875 C-2.715 15.5275 -2.055 14.8675 -1.375 14.1875 C1.25 14.0625 1.25 14.0625 3.625 14.1875 C2.37523244 17.84066671 1.95401247 18.96815836 -1.375 21.1875 C-4.76607371 21.73352034 -7.98374176 21.73377924 -11.375 21.1875 C-14.19924288 18.99727082 -15.79008603 17.35732793 -17.375 14.1875 C-17.77604417 8.97392583 -17.24696113 5.59801174 -14.375 1.1875 C-10.50233156 -1.96800762 -4.52467007 -1.54791344 0 0 Z M-11.25 4.5625 C-12.56473666 6.13216014 -12.56473666 6.13216014 -12.375 8.1875 C-8.415 8.1875 -4.455 8.1875 -0.375 8.1875 C-1.365 6.5375 -2.355 4.8875 -3.375 3.1875 C-6.70972201 2.631713 -8.4850287 2.53485438 -11.25 4.5625 Z " fill="#FA9148" transform="translate(349.375,153.8125)"/>
<path d="M0 0 C3 1.4375 3 1.4375 5 4 C5.70121335 7.06319516 5.86032055 9.83393252 6 13 C-1.92 13.495 -1.92 13.495 -10 14 C-9.01 15.485 -9.01 15.485 -8 17 C-4.41642759 17.25015873 -4.41642759 17.25015873 -1 17 C-0.67 16.34 -0.34 15.68 0 15 C1.98 15 3.96 15 6 15 C4.47793991 17.62901288 3.15634036 19.84365964 1 22 C-2.7338548 22.62531546 -6.26335302 22.59226393 -10 22 C-13.6403201 19.28760463 -14.65984951 17.93885778 -15.4296875 13.55078125 C-15.65033717 9.20917446 -15.42476436 6.69378179 -13.125 2.9375 C-9.11128309 -0.72206542 -5.2340487 -0.61470693 0 0 Z M-10 6 C-10 6.99 -10 7.98 -10 9 C-6.37 9 -2.74 9 1 9 C0.67 7.68 0.34 6.36 0 5 C-5.28199593 3.80011955 -5.28199593 3.80011955 -10 6 Z " fill="#FA9148" transform="translate(468,153)"/>
<path d="M0 0 C2.75569447 2.18159145 4.43588747 3.87177494 6 7 C6 8.98 6 10.96 6 13 C-1.92 13.495 -1.92 13.495 -10 14 C-9.01 15.485 -9.01 15.485 -8 17 C-4.41642759 17.25015873 -4.41642759 17.25015873 -1 17 C-0.67 16.34 -0.34 15.68 0 15 C1.65 15 3.3 15 5 15 C4.63603417 17.63875227 4.24685741 18.77200361 2.26171875 20.60546875 C-1.64376871 23.01351542 -5.56987122 22.72284815 -10 22 C-13.125 20.1875 -13.125 20.1875 -15 17 C-15.8766741 11.73205741 -15.90385107 7.50641845 -13.125 2.875 C-9.13941103 -0.64169615 -5.1532963 -0.81883119 0 0 Z M-11 8 C-11 8.33 -11 8.66 -11 9 C-7.04 9 -3.08 9 1 9 C-0.57836298 5.31622777 -0.57836298 5.31622777 -2 4 C-6.52002563 3.38918573 -8.15822169 4.52671539 -11 8 Z " fill="#FA9148" transform="translate(106,153)"/>
<path d="M0 0 C3 1.4375 3 1.4375 5 4 C5.70121335 7.06319516 5.86032055 9.83393252 6 13 C-1.92 13.495 -1.92 13.495 -10 14 C-9.01 15.485 -9.01 15.485 -8 17 C-4.41642759 17.25015873 -4.41642759 17.25015873 -1 17 C-0.67 16.34 -0.34 15.68 0 15 C1.65 15 3.3 15 5 15 C4.63611322 17.63817913 4.24873446 18.77082893 2.26171875 20.6015625 C-1.64566572 23.01752734 -5.57113887 22.85142888 -10 22 C-13.56069065 19.29387511 -14.66536439 17.89023898 -15.43359375 13.55078125 C-15.64773884 9.20947633 -15.42473974 6.69374157 -13.125 2.9375 C-9.11128309 -0.72206542 -5.2340487 -0.61470693 0 0 Z M-11 8 C-11 8.33 -11 8.66 -11 9 C-7.04 9 -3.08 9 1 9 C-0.57836298 5.31622777 -0.57836298 5.31622777 -2 4 C-6.52002563 3.38918573 -8.15822169 4.52671539 -11 8 Z " fill="#FA9148" transform="translate(409,153)"/>
<path d="M0 0 C1.65 0 3.3 0 5 0 C5.06058594 1.14339844 5.12117187 2.28679687 5.18359375 3.46484375 C5.26798428 4.95574305 5.35263302 6.44662775 5.4375 7.9375 C5.47681641 8.69224609 5.51613281 9.44699219 5.55664062 10.22460938 C5.44038024 13.91944187 5.44038024 13.91944187 7 17 C10 17.16666667 10 17.16666667 13 17 C15.05922402 14.94077598 14.41427579 10.78291876 14.5625 7.9375 C14.60568359 7.17888672 14.64886719 6.42027344 14.69335938 5.63867188 C14.79973633 3.75934562 14.90039934 1.87969756 15 0 C16.65 0 18.3 0 20 0 C20 7.26 20 14.52 20 22 C16.41125 22.0928125 16.41125 22.0928125 12.75 22.1875 C12.00331055 22.21481201 11.25662109 22.24212402 10.48730469 22.27026367 C7.41061548 22.30874297 5.29600406 22.16184738 2.578125 20.67578125 C-0.85080278 17.03466735 -0.11558609 12.48815925 -0.0625 7.8125 C-0.05798828 7.06291016 -0.05347656 6.31332031 -0.04882812 5.54101562 C-0.03706354 3.69397617 -0.01912865 1.84697787 0 0 Z " fill="#FA9148" transform="translate(529,153)"/>
<path d="M0 0 C1.32 0 2.64 0 4 0 C4.33 2.64 4.66 5.28 5 8 C5.66 7.67 6.32 7.34 7 7 C14.10828025 6.42675159 14.10828025 6.42675159 17.2421875 8.44140625 C19.87346539 12.2713774 19.43395139 15.72196572 19.25 20.25 C19.23195312 21.09046875 19.21390625 21.9309375 19.1953125 22.796875 C19.14830798 24.86507395 19.07656724 26.93268441 19 29 C17.68 29 16.36 29 15 29 C14.95101562 27.94039062 14.90203125 26.88078125 14.8515625 25.7890625 C14.77653291 24.40101503 14.70098515 23.01299549 14.625 21.625 C14.5940625 20.92632812 14.563125 20.22765625 14.53125 19.5078125 C14.40500502 15.29814173 14.40500502 15.29814173 12 12 C9.5 11.58333333 9.5 11.58333333 7 12 C4.57520264 15.63719605 4.61337423 17.85703482 4.375 22.1875 C4.26285156 24.09595703 4.26285156 24.09595703 4.1484375 26.04296875 C4.09945312 27.01878906 4.05046875 27.99460938 4 29 C2.68 29 1.36 29 0 29 C0 19.43 0 9.86 0 0 Z " fill="#FA9148" transform="translate(210,146)"/>
<path d="M0 0 C2.371875 -0.103125 4.74375 -0.20625 7.1875 -0.3125 C7.92508545 -0.35802002 8.6626709 -0.40354004 9.42260742 -0.45043945 C13.06345664 -0.52664899 14.92867984 -0.04729653 17.96875 1.96875 C20.70918778 6.05832638 20.57382693 9.01614582 20.3125 13.8125 C20.28994141 14.60076172 20.26738281 15.38902344 20.24414062 16.20117188 C20.18554161 18.13493929 20.09586827 20.06772167 20 22 C18.68 22 17.36 22 16 22 C15.95101563 21.02417969 15.90203125 20.04835937 15.8515625 19.04296875 C15.73941406 17.13451172 15.73941406 17.13451172 15.625 15.1875 C15.55539062 13.92292969 15.48578125 12.65835938 15.4140625 11.35546875 C15.23897061 7.87244766 15.23897061 7.87244766 13 5 C10.5 4.58333333 10.5 4.58333333 8 5 C5.15385976 7.84614024 5.54420924 10.80369142 5.375 14.625 C5.33632813 15.33140625 5.29765625 16.0378125 5.2578125 16.765625 C5.16352276 18.50998524 5.08067109 20.25495691 5 22 C3.35 22 1.7 22 0 22 C0 14.74 0 7.48 0 0 Z " fill="#FA9148" transform="translate(477,153)"/>
<path d="M0 0 C1.65 0 3.3 0 5 0 C5.06058594 1.14339844 5.12117187 2.28679687 5.18359375 3.46484375 C5.26798428 4.95574305 5.35263302 6.44662775 5.4375 7.9375 C5.47681641 8.69224609 5.51613281 9.44699219 5.55664062 10.22460938 C5.44038024 13.91944187 5.44038024 13.91944187 7 17 C8.99958364 17.04080783 11.00045254 17.04254356 13 17 C15.15059309 13.46813168 15.3797728 10.33712007 15.625 6.25 C15.69976562 5.07953125 15.77453125 3.9090625 15.8515625 2.703125 C15.90054687 1.81109375 15.94953125 0.9190625 16 0 C17.32 0 18.64 0 20 0 C20 7.26 20 14.52 20 22 C18.35 21.67 16.7 21.34 15 21 C14.67 21.33 14.34 21.66 14 22 C9.6017333 22.54420744 6.12196647 22.84147485 2.5 20.125 C-0.36331037 16.06864365 -0.11658277 12.69252653 -0.0625 7.875 C-0.05798828 7.12089844 -0.05347656 6.36679688 -0.04882812 5.58984375 C-0.03703499 3.72652873 -0.01909942 1.86325445 0 0 Z " fill="#FA9148" transform="translate(0,153)"/>
<path d="M0 0 C2.475 0.495 2.475 0.495 5 1 C5.66 0.67 6.32 0.34 7 0 C14.21726041 -0.58203713 14.21726041 -0.58203713 17.4375 1.8125 C20.3777958 5.92891411 20.12134226 9.83980298 20.0625 14.6875 C20.05798828 15.38939453 20.05347656 16.09128906 20.04882812 16.81445312 C20.03706927 18.54300538 20.01913454 20.27151365 20 22 C18.35 22 16.7 22 15 22 C14.67 16.39 14.34 10.78 14 5 C11.69 5 9.38 5 7 5 C4.84940691 8.53186832 4.6202272 11.66287993 4.375 15.75 C4.26285156 17.50570312 4.26285156 17.50570312 4.1484375 19.296875 C4.07496094 20.63492188 4.07496094 20.63492188 4 22 C2.68 22 1.36 22 0 22 C0 14.74 0 7.48 0 0 Z " fill="#FA9148" transform="translate(573,153)"/>
<path d="M0 0 C2.475 0.495 2.475 0.495 5 1 C5.66 0.67 6.32 0.34 7 0 C14.21726041 -0.58203713 14.21726041 -0.58203713 17.4375 1.8125 C20.3777958 5.92891411 20.12134226 9.83980298 20.0625 14.6875 C20.05798828 15.38939453 20.05347656 16.09128906 20.04882812 16.81445312 C20.03706927 18.54300538 20.01913454 20.27151365 20 22 C18.35 22 16.7 22 15 22 C14.67 16.39 14.34 10.78 14 5 C11.69 5 9.38 5 7 5 C4.84940691 8.53186832 4.6202272 11.66287993 4.375 15.75 C4.26285156 17.50570312 4.26285156 17.50570312 4.1484375 19.296875 C4.07496094 20.63492188 4.07496094 20.63492188 4 22 C2.68 22 1.36 22 0 22 C0 14.74 0 7.48 0 0 Z " fill="#FA9148" transform="translate(357,153)"/>
<path d="M0 0 C3 2.375 3 2.375 5 5 C5 5.66 5 6.32 5 7 C3.35 7 1.7 7 0 7 C-0.33 6.34 -0.66 5.68 -1 5 C-2.65 5 -4.3 5 -6 5 C-6.33 5.99 -6.66 6.98 -7 8 C-6.30132813 8.19335938 -5.60265625 8.38671875 -4.8828125 8.5859375 C-3.97273437 8.84632813 -3.06265625 9.10671875 -2.125 9.375 C-1.22007812 9.63023437 -0.31515625 9.88546875 0.6171875 10.1484375 C3 11 3 11 5 13 C5.55671955 18.23316372 5.55671955 18.23316372 3.7890625 20.66796875 C1.44093169 22.41624955 -0.03231482 22.4012122 -2.9375 22.375 C-3.79214844 22.38273437 -4.64679687 22.39046875 -5.52734375 22.3984375 C-8.50603662 21.91845855 -9.89758046 21.15607758 -12 19 C-12 17.68 -12 16.36 -12 15 C-7.125 15.875 -7.125 15.875 -6 17 C-4.33382885 17.04063832 -2.66611905 17.042721 -1 17 C-1 16.34 -1 15.68 -1 15 C-1.62648438 14.73445312 -2.25296875 14.46890625 -2.8984375 14.1953125 C-3.71570313 13.84210938 -4.53296875 13.48890625 -5.375 13.125 C-6.18710937 12.77695313 -6.99921875 12.42890625 -7.8359375 12.0703125 C-10 11 -10 11 -12 9 C-11.8125 5.5 -11.8125 5.5 -11 2 C-7.32995329 -0.4466978 -4.26442613 -0.83795144 0 0 Z " fill="#FA9148" transform="translate(658,153)"/>
<path d="M0 0 C3.0625 2.3125 3.0625 2.3125 5 5 C5 5.99 5 6.98 5 8 C2.625 8.1875 2.625 8.1875 0 8 C-0.66 7.01 -1.32 6.02 -2 5 C-4.3431213 5.25561323 -6.67843403 5.59270772 -9 6 C-10.38550197 8.77100394 -10.1877467 10.9334706 -10 14 C-9.01 15.485 -9.01 15.485 -8 17 C-5.04230823 17.50010524 -5.04230823 17.50010524 -2 17 C-0.37485532 15.54166642 -0.37485532 15.54166642 1 14 C2.32 14 3.64 14 5 14 C4.6789295 16.96990216 4.47610823 18.55170933 2.26171875 20.63671875 C-1.65742513 22.99903518 -5.57794567 22.72153067 -10 22 C-13.125 20.1875 -13.125 20.1875 -15 17 C-15.8766741 11.73205741 -15.90385107 7.50641845 -13.125 2.875 C-9.13440323 -0.6461148 -5.15815312 -0.80929644 0 0 Z " fill="#FA9148" transform="translate(201,153)"/>
<path d="M0 0 C1.32 0 2.64 0 4 0 C4.06058594 1.05960938 4.12117187 2.11921875 4.18359375 3.2109375 C4.26800127 4.59897221 4.35264917 5.98699232 4.4375 7.375 C4.47681641 8.07367188 4.51613281 8.77234375 4.55664062 9.4921875 C4.74280134 13.37360492 4.74280134 13.37360492 6 17 C8.91634129 17.2502157 8.91634129 17.2502157 12 17 C14.42479736 13.36280395 14.38662577 11.14296518 14.625 6.8125 C14.69976563 5.54019531 14.77453125 4.26789063 14.8515625 2.95703125 C14.90054688 1.98121094 14.94953125 1.00539062 15 0 C16.32 0 17.64 0 19 0 C19 7.26 19 14.52 19 22 C17.35 21.67 15.7 21.34 14 21 C13.67 21.33 13.34 21.66 13 22 C11.07421875 22.23828125 11.07421875 22.23828125 8.6875 22.3125 C7.90761719 22.34988281 7.12773438 22.38726562 6.32421875 22.42578125 C4 22 4 22 1.72265625 20.55859375 C-0.85988909 16.72284047 -0.43319091 13.25931476 -0.25 8.75 C-0.23195313 7.90953125 -0.21390625 7.0690625 -0.1953125 6.203125 C-0.14830798 4.13492605 -0.07656724 2.06731559 0 0 Z " fill="#FA9148" transform="translate(623,153)"/>
<path d="M0 0 C1.65 0 3.3 0 5 0 C5 1.65 5 3.3 5 5 C6.65 5 8.3 5 10 5 C10 6.32 10 7.64 10 9 C8.35 9 6.7 9 5 9 C5.33 13.29 5.66 17.58 6 22 C7.32 22.33 8.64 22.66 10 23 C10 24.32 10 25.64 10 27 C6.6875 27.25 6.6875 27.25 3 27 C0.33915287 24.58104807 0.01338843 23.15780496 -0.29296875 19.546875 C-0.25816406 18.29390625 -0.22335937 17.0409375 -0.1875 15.75 C-0.16042969 14.48671875 -0.13335938 13.2234375 -0.10546875 11.921875 C-0.07066406 10.95765625 -0.03585937 9.9934375 0 9 C-0.66 9 -1.32 9 -2 9 C-2 7.68 -2 6.36 -2 5 C-1.34 5 -0.68 5 0 5 C0 3.35 0 1.7 0 0 Z " fill="#FA9148" transform="translate(667,148)"/>
<path d="M0 0 C1.65 0 3.3 0 5 0 C5 1.65 5 3.3 5 5 C6.65 5 8.3 5 10 5 C10 6.32 10 7.64 10 9 C8.35 9 6.7 9 5 9 C5 13.62 5 18.24 5 23 C6.65 23 8.3 23 10 23 C10 24.32 10 25.64 10 27 C6.6875 27.25 6.6875 27.25 3 27 C0.33915287 24.58104807 0.01338843 23.15780496 -0.29296875 19.546875 C-0.25816406 18.29390625 -0.22335937 17.0409375 -0.1875 15.75 C-0.16042969 14.48671875 -0.13335937 13.2234375 -0.10546875 11.921875 C-0.07066406 10.95765625 -0.03585937 9.9934375 0 9 C-0.66 9 -1.32 9 -2 9 C-2 7.68 -2 6.36 -2 5 C-1.34 5 -0.68 5 0 5 C0 3.35 0 1.7 0 0 Z " fill="#FA9148" transform="translate(502,148)"/>
<path d="M0 0 C1.32 0 2.64 0 4 0 C4 1.65 4 3.3 4 5 C5.98 5 7.96 5 10 5 C10 6.32 10 7.64 10 9 C8.02 9 6.04 9 4 9 C4.33 13.29 4.66 17.58 5 22 C6.65 22.33 8.3 22.66 10 23 C10 24.32 10 25.64 10 27 C3.375 27.25 3.375 27.25 0 25 C-0.22107787 22.2114711 -0.28107535 19.65346819 -0.1875 16.875 C-0.17396484 16.12089844 -0.16042969 15.36679688 -0.14648438 14.58984375 C-0.11109985 12.72625873 -0.05729167 10.86304022 0 9 C-0.99 9 -1.98 9 -3 9 C-3 7.68 -3 6.36 -3 5 C-2.01 5 -1.02 5 0 5 C0 3.35 0 1.7 0 0 Z " fill="#FA9148" transform="translate(382,148)"/>
<path d="M0 0 C1.32 0 2.64 0 4 0 C4 1.65 4 3.3 4 5 C5.65 5 7.3 5 9 5 C9 6.32 9 7.64 9 9 C7.35 9 5.7 9 4 9 C4.33 13.29 4.66 17.58 5 22 C6.32 22.33 7.64 22.66 9 23 C9 24.32 9 25.64 9 27 C5.625 27.125 5.625 27.125 2 27 C0 25 0 25 -0.1953125 21.3046875 C-0.182009 19.82799892 -0.15814835 18.35137642 -0.125 16.875 C-0.11597656 16.12089844 -0.10695313 15.36679688 -0.09765625 14.58984375 C-0.0740687 12.72642746 -0.03819719 10.86317407 0 9 C-0.99 9 -1.98 9 -3 9 C-3 7.68 -3 6.36 -3 5 C-2.01 5 -1.02 5 0 5 C0 3.35 0 1.7 0 0 Z " fill="#FA9148" transform="translate(26,148)"/>
<path d="M0 0 C3.96 0 7.92 0 12 0 C12 1.32 12 2.64 12 4 C11.02804687 4.33644531 10.05609375 4.67289063 9.0546875 5.01953125 C5.62091276 6.74024145 5.62091276 6.74024145 5.1953125 10.57421875 C5.14235516 11.94448986 5.11987849 13.31621551 5.125 14.6875 C5.104375 15.38939453 5.08375 16.09128906 5.0625 16.81445312 C5.01547955 18.54245468 5.00425249 20.27136406 5 22 C3.35 22 1.7 22 0 22 C0 14.74 0 7.48 0 0 Z " fill="#FA9148" transform="translate(515,153)"/>
<path d="M0 0 C4 0 8 0 12 0 C12 1.32 12 2.64 12 4 C11.02804687 4.33644531 10.05609375 4.67289063 9.0546875 5.01953125 C5.62091276 6.74024145 5.62091276 6.74024145 5.1953125 10.57421875 C5.14235516 11.94448986 5.11987849 13.31621551 5.125 14.6875 C5.104375 15.38939453 5.08375 16.09128906 5.0625 16.81445312 C5.01547955 18.54245468 5.00425249 20.27136406 5 22 C3.35 22 1.7 22 0 22 C0 14.74 0 7.48 0 0 Z " fill="#FA9148" transform="translate(680,153)"/>
<path d="M0 0 C1.32 0 2.64 0 4 0 C4.07407906 4.23580253 4.12856696 8.47126341 4.16479492 12.70751953 C4.17989483 14.14899258 4.20037658 15.59041959 4.22631836 17.03173828 C4.2626513 19.10200343 4.27971329 21.17166207 4.29296875 23.2421875 C4.31653442 25.11173096 4.31653442 25.11173096 4.34057617 27.01904297 C4.22818604 28.00275879 4.1157959 28.98647461 4 30 C0.77208445 32.1519437 -0.28400809 32.20086443 -4 32 C-4 30.68 -4 29.36 -4 28 C-3.01 28 -2.02 28 -1 28 C-0.67 18.76 -0.34 9.52 0 0 Z " fill="#FA9148" transform="translate(83,153)"/>
<path d="M0 0 C1.32 0 2.64 0 4 0 C4 9.57 4 19.14 4 29 C2.68 29 1.36 29 0 29 C0 19.43 0 9.86 0 0 Z " fill="#FA9148" transform="translate(48,146)"/>
<path d="M0 0 C1.65 0 3.3 0 5 0 C5 7.26 5 14.52 5 22 C3.35 22 1.7 22 0 22 C0 14.74 0 7.48 0 0 Z " fill="#FA9148" transform="translate(694,153)"/>
<path d="M0 0 C1.65 0 3.3 0 5 0 C5 7.26 5 14.52 5 22 C3.35 22 1.7 22 0 22 C0 14.74 0 7.48 0 0 Z " fill="#FA9148" transform="translate(38,153)"/>
<path d="M0 0 C1.32 0 2.64 0 4 0 C4 7.26 4 14.52 4 22 C2.68 22 1.36 22 0 22 C0 14.74 0 7.48 0 0 Z " fill="#FA9148" transform="translate(564,153)"/>
<path d="M0 0 C1.32 0 2.64 0 4 0 C4 7.26 4 14.52 4 22 C2.68 22 1.36 22 0 22 C0 14.74 0 7.48 0 0 Z " fill="#FA9148" transform="translate(234,153)"/>
<path d="M0 0 C2.0625 0.4375 2.0625 0.4375 4 1 C4 2.32 4 3.64 4 5 C2.68 5.33 1.36 5.66 0 6 C-0.38218767 4.34385343 -0.71395102 2.67542976 -1 1 C-0.67 0.67 -0.34 0.34 0 0 Z " fill="#FA9148" transform="translate(695,145)"/>
<path d="M0 0 C2.0625 0.4375 2.0625 0.4375 4 1 C3.67 2.65 3.34 4.3 3 6 C1.68 5.67 0.36 5.34 -1 5 C-1 1 -1 1 0 0 Z " fill="#FA9148" transform="translate(235,145)"/>
<path d="M0 0 C2.0625 0.4375 2.0625 0.4375 4 1 C4 2.32 4 3.64 4 5 C2.68 5.33 1.36 5.66 0 6 C-0.38218767 4.34385343 -0.71395102 2.67542976 -1 1 C-0.67 0.67 -0.34 0.34 0 0 Z " fill="#FA9148" transform="translate(39,145)"/>
<path d="M0 0 C2.125 0.9375 2.125 0.9375 4 2 C3.34 3.32 2.68 4.64 2 6 C0.68 5.67 -0.64 5.34 -2 5 C-2 3.68 -2 2.36 -2 1 C-1.34 0.67 -0.68 0.34 0 0 Z " fill="#FA9148" transform="translate(84,145)"/>
<path d="M0 0 C1.32 0.66 2.64 1.32 4 2 C3.34 3.32 2.68 4.64 2 6 C0.68 5.34 -0.64 4.68 -2 4 C-1.34 2.68 -0.68 1.36 0 0 Z " fill="#FA9148" transform="translate(565,145)"/>
</svg>
